<?xml version="1.0" encoding="UTF-8" standalone="no"?>
<!DOCTYPE svg PUBLIC "-//W3C//DTD SVG 1.1//EN" "http://www.w3.org/Graphics/SVG/1.1/DTD/svg11.dtd">
<svg width="100%" height="100%" viewBox="0 0 420 400" version="1.1" xmlns="http://www.w3.org/2000/svg" xmlns:xlink="http://www.w3.org/1999/xlink" xml:space="preserve" xmlns:serif="http://www.serif.com/" style="fill-rule:evenodd;clip-rule:evenodd;stroke-linejoin:round;stroke-miterlimit:2;">
    <g>
        <path d="M302.8,169.64C309.42,174.89 313.28,182.91 313.52,191.37C313.79,200.45 309.89,209.25 302.89,214.95C294.09,220.9 282.95,222.19 273.39,218.05C267.16,215.47 261.46,211.83 256.54,207.17C252.4,203.54 249.02,199.41 245.92,195.01C245.15,194.21 244.62,193.45 243.85,192.91C240.23,189.81 235.55,188.26 230.91,189.04C226.24,189.56 222.11,192.41 219.51,196.29C218.99,197.34 218.47,198.09 218.21,199.14C216.66,204.57 215.88,210.27 215.61,215.97C215.36,222.97 214.85,230.21 213.81,237.21L211.49,246.28L194.14,240.58C195.94,237.98 197.5,235.13 198.8,232.03C201.4,225.31 202.95,218.31 203.48,211.31C203.73,207.18 203.48,202.78 202.18,198.88C201.92,197.85 201.4,196.81 200.88,196.03C198.28,192.15 194.15,189.57 189.48,188.77C184.82,188 180.16,189.57 176.54,192.67C175.76,193.17 174.98,193.97 174.46,194.74C171.61,199.41 167.99,203.28 163.84,206.91C158.91,211.58 153.24,215.21 147.01,217.78C137.18,221.68 126.04,220.64 117.51,214.68C110.51,208.98 106.61,200.18 106.88,191.11C107.15,182.05 111.8,173.76 119.05,168.33C111.55,163.13 107.15,154.59 106.88,145.53C106.62,136.45 110.5,127.65 117.5,121.95C126.3,115.75 137.43,114.71 147,118.85C155.3,122.22 162.8,127.65 168.5,134.65C171.6,138.02 175.24,141.13 179.1,143.45C180.15,144.23 181.18,144.49 182.48,144.75C183.78,144.75 185.08,144.75 186.1,144.23L186.08,144.25C186.85,144 187.11,143.75 187.63,143.48C189.19,141.93 189.97,140.11 189.97,138.03C189.97,135.96 189.2,134.13 187.64,132.59C185.58,130.77 183.5,128.97 181.18,127.67C172.12,121.72 164.86,112.92 160.72,102.82C156.82,92.98 157.87,81.85 163.82,73.3C169.52,66.3 178.32,62.42 187.39,62.68C196.46,62.94 204.73,67.6 210.16,74.86C215.36,67.34 223.9,62.94 232.96,62.68C242.04,62.42 250.84,66.3 256.54,73.3C262.74,82.1 263.78,93.24 259.64,102.84C255.5,112.94 248.24,121.74 239.18,127.7C236.84,129 234.78,130.82 232.7,132.62C231.14,134.17 230.37,135.99 230.37,138.05C230.37,140.12 231.14,141.93 232.7,143.49C233.2,144.02 233.73,144.26 234.25,144.52C235.29,145.04 236.57,145.3 237.87,145.04C239.17,144.78 240.21,144.26 241.24,143.74C245.14,141.41 248.74,138.31 251.87,134.94C257.57,127.94 265.07,122.51 273.37,119.14C283.2,115.26 294.33,116.29 302.87,122.24C309.87,127.94 313.75,136.74 313.49,145.81C313.22,154.83 308.59,163.11 301.39,168.53L301.09,168.33C312.74,159.78 315.85,143.73 308.09,131.55C300.31,119.38 284.51,115.25 271.82,122.23C265.62,125.09 259.92,128.97 255.25,133.63C251.62,137.26 248,140.63 244.11,143.73C241.01,145.81 237.38,146.83 233.49,147.1C232.19,147.1 230.89,146.6 230.39,145.3C229.61,143.47 229.09,141.65 229.35,139.6C229.61,136.22 230.9,133.1 233.49,131.04C235.56,129.22 237.64,127.67 239.97,126.37C247.22,120.42 252.92,113.17 256.8,104.62C263.8,91.92 259.66,76.12 247.5,68.36C234.8,60.59 218.74,63.7 210.2,75.36L210.17,75.33C201.62,63.68 185.57,60.57 173.39,68.33C161.21,76.11 157.07,91.91 164.06,104.6C167.93,113.15 173.62,120.4 180.88,126.35C183.21,127.65 185.28,129.45 187.35,131.02C189.95,133.09 191.25,136.45 191.49,139.56C191.49,141.63 191.23,143.46 190.45,145.26C189.95,146.3 188.65,147.06 187.35,147.06C183.47,146.81 179.85,145.78 176.73,143.71C172.85,140.61 169.23,137.25 165.6,133.61C160.68,128.96 154.98,125.08 149.02,122.21C136.32,115.24 120.52,119.38 112.76,131.55C105.01,143.73 108.12,159.78 119.76,168.33C108.12,176.89 105.26,192.93 112.76,205.13C120.56,217.29 136.36,221.43 149.04,214.43C158.11,210.3 165.88,204.08 171.84,196.31C172.87,195.01 173.9,193.71 175.2,192.43C178.82,188.28 184.26,185.95 189.7,186.99C195.14,187.76 199.8,191.39 202.13,196.57C202.65,197.35 202.91,198.37 203.43,199.42C204.46,203.02 204.98,206.67 204.98,210.3C204.98,213.92 204.48,217.55 203.44,220.92C202.4,224.79 201.11,228.92 199.81,232.82C198.78,235.42 197.48,238 195.93,240.32L211.21,245.52L213.01,238.26C214.06,231.01 214.58,223.76 215.09,216.5C215.36,210.8 216.14,205.1 217.43,199.4C217.69,198.37 218.21,197.6 218.73,196.56C220.8,191.38 225.46,187.76 231.16,186.98C236.6,186.2 242.04,188.28 245.66,192.42C246.7,193.72 247.99,195.02 249.03,196.3C254.99,204.07 262.76,210.3 271.83,214.43C284.51,221.43 300.31,217.3 308.08,205.13C315.46,193.53 313.01,178.48 302.75,169.67L302.8,169.64Z" style="fill:white;fill-rule:nonzero;"/>
        <path d="M194.32,240.5L211.42,246.1L213.7,237.17C214.62,230.97 215.2,224.03 215.5,215.97C215.8,209.81 216.67,204.14 218.1,199.1C218.3,198.32 218.65,197.67 219,197C219.14,196.75 219.28,196.5 219.4,196.23C222.13,192.13 226.43,189.41 230.9,188.91C231.7,188.81 232.5,188.71 233.3,188.71C237.07,188.71 240.84,190.19 243.94,192.84C244.44,193.18 244.86,193.64 245.29,194.14C245.49,194.39 245.73,194.66 245.99,194.92C249.63,200.08 252.99,203.92 256.59,207.1C261.43,211.67 267.09,215.32 273.39,217.96C277.09,219.56 281.04,220.36 285.12,220.36C291.38,220.36 297.52,218.46 302.82,214.86C309.7,209.26 313.65,200.48 313.39,191.39C313.14,182.23 308.61,173.75 301.29,168.69C301.25,168.69 301.23,168.64 301.23,168.59C301.23,168.56 301.25,168.53 301.28,168.49C308.71,162.91 313.13,154.64 313.38,145.79C313.64,136.71 309.68,127.94 302.81,122.33C297.76,118.83 291.73,116.96 285.38,116.96C281.28,116.96 277.26,117.73 273.41,119.26C265.01,122.66 257.58,128.12 251.96,135.01C248.66,138.61 244.96,141.65 241.31,143.85C240.27,144.38 239.21,144.91 237.91,145.17C236.69,145.41 235.36,145.22 234.21,144.64C233.68,144.38 233.15,144.11 232.61,143.58C231.05,142.01 230.26,140.15 230.26,138.06C230.26,135.96 231.06,134.12 232.62,132.56C234.67,130.76 236.78,128.91 239.12,127.6C248.15,121.67 255.4,112.86 259.52,102.8C263.72,93.08 262.58,82.1 256.44,73.4C251.04,66.77 242.58,62.8 233.82,62.8C233.52,62.8 233.25,62.8 232.97,62.82C223.79,63.08 215.31,67.62 210.27,74.94L210.17,74.99C210.12,74.99 210.07,74.99 210.07,74.95C204.47,67.49 196.19,63.05 187.37,62.82L186.51,62.82C177.74,62.82 169.29,66.77 163.89,73.4C158.01,81.82 156.86,92.82 160.79,102.8C164.92,112.86 172.17,121.67 181.21,127.6C183.55,128.9 185.66,130.75 187.71,132.54C189.27,134.1 190.07,135.96 190.07,138.06C190.07,140.16 189.27,142.02 187.72,143.59L187.68,143.61L187.25,143.87C186.95,144.05 186.67,144.23 186.15,144.41C185.09,144.93 183.75,144.93 182.47,144.93C181.17,144.66 180.09,144.4 179.02,143.6C175.37,141.4 171.69,138.36 168.39,134.78C162.79,127.88 155.36,122.43 146.94,119.01C143.14,117.37 139.12,116.53 134.99,116.53C128.74,116.53 122.69,118.46 117.53,122.11C110.66,127.71 106.71,136.49 106.97,145.57C107.23,154.74 111.77,163.23 119.09,168.27C119.12,168.3 119.14,168.34 119.14,168.37C119.14,168.41 119.12,168.45 119.09,168.47C111.64,174.07 107.22,182.34 106.97,191.17C106.71,200.27 110.67,209.04 117.54,214.65C122.59,218.17 128.62,220.03 134.97,220.03C139.07,220.03 143.09,219.26 146.95,217.73C153.27,215.1 158.92,211.45 163.75,206.88C168.4,202.82 171.77,198.96 174.35,194.74C174.87,193.94 175.65,193.17 176.45,192.64C179.53,190 183.31,188.54 187.07,188.54C187.87,188.54 188.69,188.61 189.47,188.74C194.21,189.54 198.39,192.19 200.97,196.04C201.57,196.94 202.04,197.99 202.27,198.94C203.43,202.41 203.87,206.61 203.57,211.4C203.04,218.5 201.47,225.47 198.9,232.16C197.64,235.22 196.1,238.06 194.32,240.6M211.49,246.48L211.44,246.48L194.09,240.78C194.05,240.78 194.02,240.74 194.01,240.7C194.01,240.67 194.01,240.63 194.03,240.6C195.83,238.03 197.39,235.16 198.68,232.08C201.24,225.41 202.81,218.45 203.33,211.38C203.63,206.64 203.2,202.48 202.03,199.01C201.81,198.11 201.33,197.07 200.76,196.21C198.23,192.41 194.1,189.77 189.44,189.01C188.66,188.87 187.86,188.81 187.07,188.81C183.37,188.81 179.63,190.24 176.57,192.86C175.8,193.38 175.04,194.14 174.53,194.9C171.95,199.12 168.57,203 163.89,207.1C159.06,211.67 153.39,215.34 147.03,218C143.15,219.52 139.09,220.3 134.97,220.3C128.57,220.3 122.49,218.42 117.4,214.87C110.46,209.21 106.47,200.37 106.74,191.2C106.99,182.34 111.39,174.05 118.84,168.4C111.51,163.3 107,154.8 106.74,145.62C106.47,136.46 110.46,127.62 117.4,121.96C122.6,118.28 128.7,116.34 135,116.34C139.16,116.34 143.22,117.18 147.05,118.84C155.49,122.27 162.95,127.74 168.59,134.67C171.86,138.22 175.52,141.27 179.16,143.44C180.19,144.22 181.23,144.47 182.48,144.72C183.72,144.72 185.02,144.72 186.03,144.22C186.55,144.04 186.83,143.88 187.13,143.7C187.26,143.62 187.4,143.53 187.57,143.45C189.07,141.95 189.85,140.15 189.85,138.12C189.85,136.1 189.08,134.3 187.55,132.77C185.53,131 183.43,129.17 181.11,127.87C172.01,121.9 164.74,113.05 160.61,102.95C156.63,92.89 157.79,81.81 163.71,73.31C169.17,66.61 177.69,62.61 186.53,62.61C186.81,62.61 187.1,62.61 187.38,62.63C196.25,62.89 204.55,67.29 210.18,74.73C215.28,67.41 223.78,62.89 232.98,62.63C242.11,62.35 251.01,66.39 256.63,73.29C262.83,82.07 263.99,93.15 259.76,102.94C255.62,113.04 248.33,121.88 239.26,127.84C236.93,129.14 234.83,130.98 232.8,132.74C231.28,134.28 230.5,136.08 230.5,138.11C230.5,140.15 231.28,141.95 232.8,143.47C233.3,143.97 233.8,144.22 234.32,144.47C235.44,145.04 236.72,145.22 237.88,144.99C239.16,144.74 240.2,144.22 241.21,143.71C244.86,141.53 248.53,138.49 251.81,134.93C257.45,128 264.91,122.53 273.35,119.09C277.23,117.55 281.29,116.77 285.42,116.77C291.82,116.77 297.9,118.65 303,122.2C309.94,127.87 313.93,136.72 313.67,145.88C313.41,154.74 309,163.03 301.57,168.66C308.87,173.76 313.4,182.28 313.67,191.46C313.92,200.62 309.93,209.46 303,215.12C297.62,218.74 291.45,220.66 285.13,220.66C281.03,220.66 277.06,219.84 273.33,218.23C266.99,215.6 261.31,211.93 256.47,207.33C252.85,204.18 249.47,200.3 245.84,195.13C245.58,194.9 245.34,194.63 245.11,194.37C244.71,193.89 244.31,193.44 243.81,193.11C240.74,190.51 237.01,189.06 233.31,189.06C232.51,189.06 231.71,189.13 230.94,189.26C226.54,189.74 222.3,192.44 219.62,196.46C219.52,196.71 219.37,196.96 219.24,197.21C218.87,197.91 218.54,198.51 218.36,199.27C216.91,204.3 216.06,209.95 215.76,216.07C215.46,224.17 214.86,231.11 213.96,237.33L211.61,246.4C211.61,246.43 211.58,246.45 211.55,246.47L211.49,246.47" style="fill:white;fill-rule:nonzero;"/>
        <path d="M210.2,75.33C201.65,63.68 185.6,60.57 173.42,68.33C161.24,76.11 157.1,91.91 164.09,104.6C167.96,113.15 173.65,120.4 180.91,126.35C183.24,127.65 185.31,129.45 187.38,131.02C189.98,133.09 191.28,136.45 191.52,139.56C191.52,141.63 191.26,143.46 190.48,145.26C189.98,146.3 188.68,147.06 187.38,147.06C183.5,146.81 179.88,145.78 176.76,143.71C172.88,140.61 169.26,137.25 165.63,133.61C160.71,128.96 155.01,125.08 149.05,122.21C136.35,115.24 120.55,119.38 112.79,131.55C105.04,143.73 108.15,159.78 119.79,168.33C108.15,176.89 105.29,192.93 112.79,205.13C120.59,217.29 136.39,221.43 149.07,214.43C158.14,210.3 165.91,204.08 171.87,196.31C172.9,195.01 173.93,193.71 175.23,192.43C178.85,188.28 184.29,185.95 189.73,186.99C195.17,187.76 199.83,191.39 202.16,196.57C202.68,197.35 202.94,198.37 203.46,199.42C204.49,203.02 205.01,206.67 205.01,210.3C205.01,213.92 204.51,217.55 203.47,220.92C202.43,224.79 201.14,228.92 199.84,232.82C198.81,235.42 197.51,238 195.96,240.32L211.24,245.52L213.04,238.26C214.09,231.01 214.61,223.76 215.12,216.5C215.39,210.8 216.17,205.1 217.46,199.4C217.72,198.37 218.24,197.6 218.76,196.56C220.83,191.38 225.49,187.76 231.19,186.98C236.63,186.2 242.07,188.28 245.69,192.42C246.73,193.72 248.02,195.02 249.06,196.3C255.02,204.07 262.79,210.3 271.86,214.43C284.54,221.43 300.34,217.3 308.11,205.13C315.87,192.93 312.76,176.9 301.11,168.33C312.76,159.8 315.87,143.73 308.11,131.57C300.33,119.4 284.53,115.27 271.84,122.25C265.64,125.11 259.94,128.99 255.27,133.65C251.64,137.28 248.02,140.65 244.13,143.75C241.03,145.83 237.4,146.85 233.51,147.12C232.21,147.12 230.91,146.62 230.41,145.32C229.63,143.49 229.11,141.67 229.37,139.62C229.63,136.24 230.92,133.12 233.51,131.06C235.58,129.24 237.66,127.69 239.99,126.39C247.24,120.44 252.94,113.19 256.82,104.64C263.82,91.94 259.68,76.14 247.52,68.38C234.82,60.61 218.76,63.72 210.22,75.38" style="fill:white;fill-opacity:0;fill-rule:nonzero;"/>
        <path d="M197,239.95L210.75,244.61L212.39,238.09C213.39,230.91 213.91,223.56 214.42,216.45C214.68,210.75 215.47,204.97 216.77,199.25C216.97,198.39 217.33,197.72 217.72,197L218.1,196.25C220.27,190.85 225.1,187.11 231.06,186.3C231.83,186.18 232.63,186.12 233.41,186.12C238.28,186.12 242.91,188.25 246.17,191.95C246.7,192.61 247.27,193.25 247.85,193.89C248.45,194.53 249.03,195.19 249.55,195.84C255.45,203.54 263.25,209.74 272.1,213.78C276.1,215.98 280.5,217.1 284.96,217.1C294.12,217.1 302.56,212.46 307.51,204.7C315.05,192.9 312.05,177.15 300.71,168.82L299.95,168.28L300.7,167.74C312.04,159.42 315.04,143.67 307.5,131.88C302.55,124.11 294.1,119.48 284.96,119.48C280.51,119.48 276.08,120.61 272.16,122.78C265.92,125.64 260.26,129.53 255.72,134.06C251.65,138.14 248.09,141.36 244.52,144.21C241.45,146.28 237.76,147.45 233.54,147.73C231.71,147.73 230.32,146.89 229.76,145.49C229.06,143.89 228.38,141.89 228.68,139.49C228.96,135.69 230.48,132.55 233.06,130.49C235.34,128.49 237.44,126.99 239.63,125.76C246.8,119.86 252.4,112.62 256.18,104.32C262.96,92.02 258.96,76.48 247.1,68.92C242.65,66.19 237.6,64.74 232.47,64.74C223.77,64.74 215.83,68.74 210.71,75.74L210.17,76.48L209.62,75.72C204.58,68.84 196.5,64.72 188.02,64.72C182.96,64.72 178.02,66.17 173.76,68.9C161.9,76.48 157.91,92 164.66,104.27C168.46,112.61 174.06,119.87 181.33,125.82C183.01,126.72 184.61,127.99 186.16,129.2L187.8,130.48C190.3,132.48 191.9,135.78 192.22,139.52C192.22,141.95 191.88,143.78 191.12,145.55C190.46,146.87 188.92,147.77 187.39,147.77C183.12,147.47 179.44,146.31 176.39,144.27C172.79,141.4 169.24,138.17 165.16,134.07C160.39,129.57 154.71,125.67 148.76,122.83C144.8,120.63 140.36,119.5 135.92,119.5C126.76,119.5 118.32,124.13 113.37,131.9C105.85,143.7 108.84,159.44 120.19,167.76L120.94,168.3L120.19,168.85C109.02,177.05 106.02,192.8 113.39,204.72C118.33,212.48 126.76,217.12 135.92,217.12C140.37,217.12 144.8,215.98 148.72,213.82C157.64,209.74 165.42,203.54 171.32,195.86C172.35,194.56 173.42,193.26 174.74,191.92C178.64,187.45 184.44,185.27 189.84,186.29C195.48,187.09 200.32,190.82 202.77,196.25C203.07,196.65 203.29,197.25 203.53,197.85C203.69,198.25 203.86,198.65 204.06,199.07C205.16,202.84 205.69,206.57 205.69,210.24C205.69,213.99 205.14,217.64 204.09,221.04C203.19,224.49 201.95,228.51 200.46,232.97C199.44,235.54 198.26,237.87 196.98,239.92M211.68,246.32L194.88,240.64L195.38,239.9C196.8,237.75 198.08,235.27 199.18,232.52C200.65,228.12 201.88,224.12 202.78,220.68C203.78,217.43 204.32,213.82 204.32,210.25C204.32,206.71 203.79,203.11 202.78,199.55C202.61,199.23 202.43,198.78 202.26,198.35C202.06,197.81 201.84,197.3 201.58,196.9C199.28,191.8 194.82,188.37 189.62,187.63C188.77,187.47 187.94,187.39 187.12,187.39C182.9,187.39 178.75,189.36 175.72,192.83C174.42,194.13 173.38,195.43 172.37,196.69C166.35,204.53 158.37,210.87 149.32,215.02C145.24,217.27 140.58,218.47 135.9,218.47C126.28,218.47 117.42,213.6 112.2,205.44C104.65,193.16 107.5,177.04 118.66,168.29C107.32,159.43 104.46,143.29 112.2,131.16C117.4,123 126.27,118.13 135.9,118.13C140.57,118.13 145.23,119.33 149.36,121.6C155.39,124.48 161.18,128.46 166.06,133.1C170.13,137.15 173.66,140.35 177.16,143.16C179.96,145.02 183.42,146.11 187.41,146.38C188.37,146.38 189.45,145.76 189.86,144.94C190.53,143.4 190.83,141.72 190.83,139.54C190.55,136.24 189.13,133.29 186.93,131.54L185.3,130.27C183.8,129.07 182.22,127.87 180.55,126.93C173.01,120.75 167.29,113.35 163.43,104.86C156.35,92.02 160.55,75.7 173,67.76C177.5,64.88 182.67,63.36 187.98,63.36C196.6,63.36 204.82,67.4 210.14,74.19C215.52,67.31 223.6,63.39 232.44,63.39C237.8,63.39 243.11,64.89 247.78,67.75C260.25,75.71 264.44,92.03 257.34,104.91C253.51,113.36 247.78,120.76 240.34,126.87C238.14,128.1 236.12,129.57 233.89,131.51C230.99,133.84 230.15,137.19 229.96,139.61C229.7,141.71 230.31,143.51 230.94,144.98C231.46,146.24 232.86,146.38 233.44,146.38C237.38,146.11 240.84,145.02 243.68,143.12C247.14,140.32 250.68,137.14 254.71,133.12C259.35,128.45 265.15,124.46 271.48,121.56C275.58,119.3 280.22,118.1 284.9,118.1C294.53,118.1 303.38,122.97 308.6,131.13C316.34,143.27 313.48,159.41 302.15,168.28C313.48,177.16 316.35,193.28 308.59,205.43C303.39,213.59 294.54,218.46 284.89,218.46C280.23,218.46 275.59,217.26 271.45,214.98C262.45,210.88 254.48,204.53 248.45,196.68C247.95,196.05 247.38,195.41 246.81,194.78C246.21,194.12 245.61,193.46 245.11,192.8C241.65,188.86 236.36,186.87 231.21,187.6C225.76,188.35 221.31,191.77 219.31,196.77L218.89,197.57C218.53,198.25 218.22,198.83 218.05,199.52C216.77,205.12 215.99,210.84 215.75,216.47C215.23,223.63 214.7,231.01 213.65,238.3L211.65,246.33L211.65,246.31L211.68,246.32Z" style="fill:white;fill-rule:nonzero;"/>
        <path d="M210.2,222.67L213.82,199.13C216.67,199.13 219.26,199.13 222.1,198.87C223.14,206.9 226.76,214.42 231.94,220.62C226.49,228.65 218.99,234.87 210.19,239.02C201.39,235.12 193.87,228.65 188.42,220.62C193.87,214.42 197.22,206.9 198.52,198.87C201.38,198.87 203.97,199.13 206.82,199.13L210.19,222.67L210.19,222.7L210.19,222.67L210.2,222.67ZM184.03,197.32C187.66,197.82 191.55,198.35 195.17,198.62C194.65,202.75 193.37,206.9 191.29,210.52C189.19,214.42 186.09,217.26 182.19,218.82C178.59,219.85 174.69,219.32 171.59,217C168.49,214.93 166.39,211.56 165.89,207.93C170.03,209.23 174.43,208.97 178.32,206.9C180.39,205.86 181.94,204.3 182.72,202.24C183.5,200.68 184.02,199.14 184.02,197.32L184.03,197.32ZM236.35,197.32C232.73,197.82 228.85,198.35 225.22,198.62C225.72,202.75 227.02,206.9 229.1,210.52C231.17,214.42 234.28,217.26 238.16,218.82C241.79,219.85 245.66,219.32 248.78,217C251.88,214.93 253.96,211.56 254.48,207.93C250.34,209.23 245.93,208.97 242.05,206.9C239.98,205.86 238.42,204.3 237.65,202.24C236.87,200.68 236.35,199.14 236.35,197.32ZM179.9,184.62C184.8,183.59 189.73,183.07 194.65,182.55C192.58,171.93 187.92,161.83 181.19,153.29C177.54,148.89 173.39,144.99 168.49,142.13C164.09,139.28 158.89,137.99 153.71,137.73C143.87,137.99 135.33,143.69 131.18,152.49C129.1,156.91 128.08,161.83 127.8,166.49C127.55,181.51 138.94,194.19 153.7,195.23C151.37,188.23 153.7,180.73 159.66,176.33C163.28,174.26 167.68,174.26 171.06,176.33C174.41,178.66 177.26,181.25 179.86,184.63L179.88,184.63L179.9,184.62ZM240.5,184.62C235.57,183.59 230.65,183.07 225.73,182.55C227.8,171.93 232.47,161.83 239.2,153.29C242.83,148.89 246.97,144.99 251.9,142.13C256.3,139.28 261.47,137.99 266.65,137.73C276.49,137.99 285.05,143.69 289.19,152.49C291.24,156.91 292.29,161.83 292.53,166.49C292.79,181.51 281.4,194.19 266.63,195.23C268.96,188.23 266.63,180.73 260.68,176.33C257.04,174.26 252.64,174.26 249.28,176.33C245.9,178.66 243.08,181.23 240.48,184.63L240.5,184.62ZM159.17,160.02L151.15,160.02L148.55,152.25L145.95,160.02L137.68,160.02L144.41,164.68L141.84,172.45L148.58,167.79L155.05,172.43L152.72,164.66L159.19,160.01L159.17,160.02ZM269.24,160.02L271.82,152.25L274.42,160.02L282.72,160.02L275.98,164.67L278.58,172.44L271.84,167.79L265.37,172.44L267.71,164.67L261.21,160.01L269.25,160.01L269.24,160.02Z" style="fill:white;"/>
        <path d="M173.42,190.58C173.42,193.68 189.72,196.54 210.19,196.54C230.39,196.54 246.95,193.94 246.95,190.58C246.95,187.48 230.63,184.63 210.17,184.63C189.97,184.89 173.39,187.48 173.39,190.58M210.19,119.36L206.04,182.04C203.44,182.04 200.86,182.3 198.27,182.3C197.75,176.6 196.47,171.16 194.37,165.72C192.31,159.25 189.72,152.77 187.13,146.3C184.53,140.08 182.47,133.86 181.18,127.4C178.58,117.03 181.68,105.9 189.18,98.38C193.58,94.24 197.98,90.08 202.65,86.21C206.28,83.38 208.87,79.51 210.15,75.09C211.45,79.49 214.05,83.12 217.67,86.23C222.33,90.13 226.99,94.27 231.13,98.41C238.63,106.18 241.49,117.06 239.16,127.41C237.86,133.89 235.78,140.37 233.19,146.33C230.34,152.53 228.01,159.03 225.94,165.75C224.12,171.19 222.82,176.63 222.04,182.32C219.46,182.07 216.87,182.07 214.28,182.07L210.13,119.39L210.16,119.39L210.19,119.36Z" style="fill:white;fill-rule:nonzero;"/>
        <path d="M159.2,160.02L151.15,160.02L148.55,152.25L145.95,160.02L137.68,160.02L144.41,164.68L141.84,172.45L148.58,167.79L155.05,172.43L152.72,164.66L159.2,160L159.2,160.02Z" style="fill:white;fill-opacity:0;fill-rule:nonzero;"/>
        <path d="M138.06,160.14L144.48,164.59C144.52,164.59 144.54,164.65 144.52,164.69L142.05,172.13L148.49,167.67C148.51,167.63 148.56,167.63 148.59,167.67L154.79,172.12L152.56,164.69C152.56,164.64 152.56,164.59 152.61,164.56L158.78,160.1L151.11,160.1C151.06,160.1 151.01,160.08 151.01,160.03L148.51,152.6L146.05,160.03C146.03,160.08 145.98,160.11 145.93,160.11L138.03,160.11L138.03,160.15L138.06,160.14ZM141.82,172.57C141.79,172.57 141.77,172.57 141.75,172.55C141.71,172.52 141.69,172.45 141.71,172.42L144.29,164.72L137.63,160.12C137.6,160.09 137.58,160.04 137.59,159.99C137.61,159.92 137.66,159.89 137.71,159.89L145.91,159.89L148.47,152.19C148.5,152.09 148.67,152.09 148.7,152.19L151.25,159.89L159.19,159.89C159.23,159.89 159.29,159.92 159.29,159.99C159.29,160.01 159.29,160.09 159.24,160.09L152.84,164.69L155.14,172.39C155.16,172.45 155.14,172.49 155.1,172.53C155.07,172.56 155,172.56 154.97,172.53L148.57,167.93L141.9,172.53C141.87,172.55 141.84,172.55 141.82,172.55M282.71,160.02L274.42,160.02L271.82,152.25L269.24,160.02L261.21,160.02L267.71,164.68L265.38,172.45L271.85,167.79L278.59,172.43L275.99,164.66L282.73,160L282.71,160.02Z" style="fill:white;fill-opacity:0;fill-rule:nonzero;"/>
        <path d="M271.83,167.67C271.86,167.67 271.88,167.67 271.9,167.69L278.34,172.13L275.87,164.7C275.85,164.66 275.87,164.6 275.91,164.57L282.35,160.13L274.45,160.13C274.39,160.13 274.35,160.1 274.33,160.05L271.86,152.62L269.38,160.05C269.38,160.1 269.32,160.13 269.28,160.13L261.61,160.13L267.79,164.58C267.83,164.6 267.85,164.65 267.83,164.7L265.6,172.13L271.8,167.67C271.8,167.65 271.83,167.64 271.85,167.64M265.38,172.54C265.35,172.54 265.33,172.54 265.31,172.52C265.27,172.49 265.25,172.44 265.26,172.39L267.56,164.69L261.16,160.09C261.12,160.05 261.11,159.99 261.12,159.95C261.15,159.89 261.19,159.85 261.22,159.85L269.19,159.85L271.75,152.15C271.78,152.07 271.95,152.07 271.97,152.15L274.54,159.85L282.74,159.85C282.8,159.85 282.84,159.89 282.86,159.95C282.88,159.99 282.86,160.05 282.82,160.07L276.16,164.67L278.72,172.37C278.74,172.41 278.72,172.47 278.68,172.5C278.64,172.54 278.58,172.54 278.54,172.5L271.87,167.9L265.47,172.5L265.4,172.53" style="fill:white;fill-opacity:0;fill-rule:nonzero;"/>
        <path d="M131.28,75.36C130.23,74.32 128.92,73.53 127.36,73.53L137.29,65.95C138.83,66.22 140.14,67 141.19,68.05C142.23,69.09 143.54,69.87 145.11,70.13L135.44,76.93C133.87,76.67 132.56,76.15 131.26,75.36M144.33,65.96C143.55,64.66 142.23,63.86 140.67,63.6L151.39,57.33C152.69,57.85 153.99,58.63 155.05,59.93C155.83,61.25 157.15,62.03 158.71,62.56L148.25,68.04C146.68,67.52 145.38,67 144.33,65.94M158.45,58.1C157.65,56.8 156.62,55.76 155.31,55.24L166.55,50.54C167.85,51.32 168.9,52.36 169.68,53.67C170.45,54.97 171.48,56.02 172.8,56.81L161.85,61C160.55,60.2 159.25,59.42 158.45,58.1M173.35,52.37C172.83,51.07 171.78,49.75 170.47,49.23L182.5,46.09C183.8,46.86 184.6,48.16 185.37,49.49C185.89,50.79 186.94,52.09 187.97,52.89L176.75,55.49C175.18,54.69 174.13,53.65 173.35,52.34M189.03,48.69C188.77,47.13 187.73,46.09 186.68,45.29L198.96,43.73C200,44.78 200.79,46.08 201.31,47.39C201.59,48.96 202.38,50.26 203.68,51.05L192.18,52.35C190.62,51.31 189.58,50 189.05,48.7M204.98,47.14C204.98,45.57 204.2,44.26 203.15,43.22L215.43,43.22C216.48,44.26 217,45.82 217.26,47.14C217.26,48.71 218.06,50.01 219.09,51.06L207.33,50.8C206.29,49.75 205.5,48.44 204.98,47.14M220.91,47.4C220.91,45.83 220.41,44.52 219.61,43.48L231.91,45.05C232.68,46.35 233.21,47.65 233.21,49.23C233.21,50.8 233.47,52.1 234.51,53.41L223,51.6C221.96,50.56 221.17,49 220.9,47.42M236.85,50C237.11,48.44 236.85,47.14 236.07,45.83L248.09,48.97C248.59,50.27 248.85,51.84 248.85,53.41C248.59,55.01 248.85,56.57 249.38,57.87L238.13,54.47C237.35,53.17 236.83,51.6 236.83,50.03M252.25,54.46C252.77,53.16 252.51,51.59 251.99,50.28L263.49,54.98C264.03,56.28 264.03,57.86 263.49,59.43C262.99,60.73 262.99,62.31 263.49,63.87L252.79,59.17C252.27,57.6 251.99,56.03 252.27,54.47M266.89,61.27C267.42,59.97 267.69,58.37 267.16,57.07L277.86,63.35C278.13,64.92 277.86,66.22 277.36,67.79C276.56,69.09 276.56,70.67 276.83,72.24L266.9,66.22C266.66,64.15 266.66,62.59 266.9,61.28M208.63,308.75C208.37,307.18 207.85,305.61 206.8,304.57C204.2,305.87 201.84,307.7 199.74,309.53C199.22,309.81 198.44,310.33 197.91,310.6C197.67,312.17 197.67,313.47 198.21,315.04C198.98,316.34 198.98,317.64 198.71,319.24C201.31,318.44 203.68,316.88 205.77,315.31C206.57,314.53 207.6,313.74 208.65,313.21C209.17,312.96 209.43,312.71 209.95,312.44C208.91,311.12 208.39,309.81 208.65,308.77M224.58,303.54C224.32,301.97 223.8,300.67 222.75,299.36C217.79,299.88 212.82,301.19 208.38,303.54C210.73,304.59 212.04,306.68 212.3,309.04C212.3,309.54 212.54,309.81 212.54,310.34C216.72,308.51 221.16,307.46 225.61,307.2C224.81,306.15 224.57,304.85 224.57,303.54M238.17,300.94C234.25,299.88 230.07,299.1 225.89,299.36C227.46,300.41 228.24,302.24 228.24,304.06C228.24,304.59 228.5,305.11 228.5,305.36L228.5,307.46L232.66,307.99C235.54,306.16 237.36,303.79 238.16,300.93M245.74,300.93C244.17,300.66 242.6,301.18 241.3,301.7C240.5,304.84 238.42,307.45 235.8,309.54C237.64,310.08 239.2,311.14 240,312.7C240.5,313.48 241.3,314.27 242.08,314.8C246.26,311.13 248.88,306.17 249.66,300.68C248.36,301.2 247.06,301.2 245.74,300.94M236.6,313.99C237.12,315.29 238.16,316.35 239.2,316.87C235.8,318.97 231.9,320.01 227.97,320.27C226.4,320.27 224.83,320.27 223.27,320.01C223.27,318.96 223.27,317.91 223.52,317.13C224.32,315.53 224.05,313.45 223.26,311.88C224.83,312.41 226.14,312.41 227.71,312.41C229.56,312.41 231.11,311.87 232.69,311.35C234.52,311.61 235.57,312.65 236.61,313.97M220.4,315C219.87,316.3 219.6,317.6 219.87,318.92C218.04,318.4 216.47,317.35 214.9,316.32L211.24,313.7C214.12,312.13 216.99,310.82 220.39,310.04C220.63,310.04 220.63,310.3 220.89,310.3C220.89,312.13 220.89,313.43 220.39,315M224.56,292.26C224.3,293.83 223.78,295.14 222.73,296.46C217.77,295.92 213.06,294.62 208.63,292.26C210.71,291.22 212.28,289.13 212.53,286.78C212.53,286.26 212.8,285.73 212.8,285.48C217,287.3 221.44,288.61 225.9,288.61C224.84,289.67 224.6,290.98 224.6,292.29M208.37,287.05C208.37,285.75 208.63,284.7 209.41,283.65C207.87,282.61 206.56,281.82 205.25,280.52L203.69,279.49C201.59,278.19 199.24,276.89 196.89,276.35C196.37,277.15 196.11,278.18 195.84,279.23C195.84,281.07 194.8,282.9 193.49,283.93C195.32,284.2 196.89,284.73 198.46,285.77L200.29,286.82C202.39,288.64 204.47,290.22 206.82,291.52C207.62,290.22 208.4,288.64 208.4,287.07M191.92,279.47C191.92,278.17 192.19,276.87 193.22,275.82L191.92,275.82C186.17,275.56 180.69,277.65 176.24,281.32C179.12,283.14 182.26,284.18 185.39,284.97C186.96,284.44 188.53,283.92 190.36,283.92C191.14,282.35 191.66,281.05 191.92,279.48M171.8,286.54C172.06,285.24 171.8,283.66 171.28,282.36L175.72,284.18C178.08,285.48 180.95,286.54 183.56,287.32C184.09,288.1 184.36,289.15 184.09,290.19C183.56,292.02 183.82,293.85 184.35,295.69C180.43,294.89 176.51,293.59 172.85,291.76C171.55,290.46 171.02,288.36 171.8,286.54M187.22,290.98L187.22,288.38C190.1,288.88 193.22,288.88 196.12,288.38C198.72,290.72 201.59,292.81 204.47,294.64C199.24,296.21 194.01,296.99 188.53,296.47C186.98,294.9 186.46,292.81 187.23,290.97M187.23,304.82L187.23,307.44C190.11,306.92 193.23,306.92 196.13,307.44C198.73,305.09 201.6,303 204.48,301.17C199.25,299.6 194.02,298.82 188.54,299.34C186.99,300.91 186.47,303 187.24,304.84M194.56,311.89C193.76,313.45 193.76,315.29 194.56,317.11C194.82,318.14 195.08,319.18 194.82,320.23C193.77,320.49 192.72,320.49 191.94,320.49C186.19,320.74 180.44,318.65 176,314.99C178.88,313.16 181.75,312.12 185.15,311.33C187.25,312.38 189.61,312.63 191.95,312.38C193.01,312.11 193.79,312.11 194.58,311.85M171.83,309.25C172.09,311.35 171.57,313.45 170.26,315.25C171.33,314.49 172.11,313.7 173.16,312.92C176.29,310.85 179.96,309.28 183.61,308.22C184.13,307.45 184.41,306.42 184.13,305.36C183.61,303.53 183.87,301.7 184.4,299.86C182.83,300.13 181,300.66 179.43,301.18C177.08,301.96 174.99,302.75 172.9,303.78C171.6,305.36 171.07,307.45 171.85,309.28M171.83,294.12L169.73,293.07C168.96,296.2 168.96,299.6 169.73,302.74C172.09,301.44 174.71,300.12 177.33,299.34L177.33,296.74C175.49,295.94 173.66,295.16 171.83,294.11M167.65,311.35C167.91,312.4 167.65,313.7 167.39,314.75L166.59,318.93L161.89,324.43L155.89,319.19L160.59,313.69C162.95,311.09 165.56,308.49 168.44,306.65C167.37,307.95 167.11,309.78 167.64,311.35M154.32,320.95L160.49,326.21L159.82,327.01L153.64,321.76L154.32,320.96L154.32,320.95ZM152.24,323.15L158.41,328.39L155.01,332.37L148.85,327.13L152.25,323.13L152.24,323.15ZM247.08,314.23C248.91,312.13 250.22,309.78 251.28,307.43C253.88,309.26 255.98,311.35 258.06,313.7L262.76,319.17L256.76,324.4L252.06,318.92C250.48,317.09 248.91,315.52 247.08,314.22M264.86,321.8L258.69,327.05L258.01,326.25L264.18,321.01L264.86,321.81L264.86,321.8ZM269.41,327.04L263.23,332.28L259.83,328.3L266,323.05L269.4,327.05L269.41,327.04ZM213.11,280.5L214.94,279.2C217.04,277.9 219.12,276.85 221.74,276.06C222.26,276.86 222.52,277.89 222.78,278.94C222.78,280.77 223.83,282.34 225.13,283.64C223.83,283.9 222.76,284.16 221.46,284.69C218.32,284.14 214.92,282.84 212.06,281.29C212.31,281.29 212.83,281.01 213.09,280.49M238.19,294.87C237.41,291.99 235.31,289.37 232.69,288.07C231.39,288.34 229.83,288.6 228.52,288.6L228.52,290.7C228.24,291.23 228.24,291.75 228.24,292C228.24,293.84 227.19,295.67 225.89,296.7C230.07,296.7 234.25,296.2 238.17,294.9M241.32,285.47C240.27,286.52 239.49,288.07 239.22,289.39C241.05,291.99 242.1,295.12 241.84,298.52C243.14,297.47 244.97,296.95 246.8,297.22C247.85,297.22 248.9,297.22 249.68,296.95C249.42,291.45 247.08,286.23 243.14,282.31C243.14,283.61 242.36,284.67 241.32,285.45M167.62,284.42C167.88,283.12 167.62,281.8 167.1,280.76L155.86,275.53C156.38,276.83 156.38,278.4 155.86,279.97C155.6,281.27 155.6,282.85 155.86,284.15L169.19,290.15C167.62,288.85 166.84,286.51 167.62,284.41M152.46,278.14C151.94,279.44 151.68,281.02 152.2,282.32L141.5,276.05C141.23,274.49 141.5,273.18 142,271.61C142.8,270.31 142.8,268.73 142.53,267.17L152.48,273.17C152.74,275.27 152.74,276.84 152.48,278.14M138.88,269.79C138.1,271.09 137.84,272.66 138.1,273.96L128.17,266.38C128.17,264.8 128.43,263.48 129.22,262.18C129.98,260.88 130.52,259.31 130.24,258L139.39,265.32C139.39,266.88 139.39,268.45 138.86,269.76M126.32,259.84C127.12,258.27 127.12,256.44 126.59,254.61L119.29,246.77C119.27,248.32 118.75,249.63 117.71,250.93C116.91,252.23 116.11,253.55 116.11,255.13L125.01,263.73C124.74,262.43 125.26,260.87 126.31,259.83M115.34,248.07C114.3,249.12 113.52,250.42 113.52,251.99L105.96,242.06C106.22,240.46 107,239.16 108.06,238.12C109.09,237.07 109.88,235.77 110.14,234.2L116.94,243.6C116.68,245.44 116.16,246.74 115.38,248.05M105.95,234.98C104.65,235.78 103.85,237.08 103.6,238.64L97.32,227.91C97.85,226.61 98.62,225.29 99.94,224.25C101.24,223.48 102.04,222.15 102.54,220.6L108.04,231.05C107.78,232.63 106.99,233.95 105.94,234.98M98.12,220.88C96.8,221.68 95.76,222.7 95.22,224.01L90.52,212.77C91.32,211.47 92.36,210.42 93.67,209.64C94.97,209.09 96.02,207.79 96.8,206.48L100.98,217.45C100.2,218.75 99.41,220.08 98.11,220.85M92.35,205.98C93.65,205.18 94.7,204.15 95.48,202.84L92.88,191.58C92.08,192.88 90.78,193.94 89.48,194.2C88.18,194.72 86.86,195.76 86.08,197.07L89.21,209.09C90.01,207.52 91.04,206.49 92.35,205.96M88.69,190.29C89.99,189.76 91.29,188.72 92.09,187.41L90.79,175.91C89.74,177.21 88.43,178.01 87.12,178.27C85.82,178.53 84.52,179.57 83.48,180.62L85.05,192.9C86.1,191.6 87.15,190.55 88.71,190.3M87.11,174.34C88.69,173.82 90.01,173.04 91.04,171.99L91.3,160.23C90.24,161.26 88.67,161.78 87.36,162.03C85.8,162.3 84.49,162.83 83.44,163.87L83.44,176.15C84.24,175.11 85.54,174.33 87.1,174.33M87.37,158.39C88.94,158.13 90.25,157.61 91.55,156.56L93.38,145.06C92.08,145.86 90.78,146.36 89.2,146.36C87.63,146.36 86.33,146.9 85.02,147.68L83.45,159.96C84.5,158.66 86.07,158.13 87.37,158.39M90,142.52C91.55,142.52 93.12,142 94.17,141.22L97.57,129.98C96.27,130.76 94.69,131.02 93.12,130.5C91.55,130.24 90.25,130.5 88.68,131.3L85.54,143.3C87.11,142.52 88.42,142.26 89.99,142.52M94.42,127.1C95.99,127.37 97.55,127.1 98.86,126.32L103.83,115.87C102.53,116.39 100.95,116.39 99.38,115.87C97.8,115.61 96.48,115.61 94.92,115.87L90.22,127.37C91.52,126.84 93.09,126.57 94.4,127.1M101.2,112.47C102.77,112.99 104.34,112.73 105.65,112.47L111.65,102.54C110.09,102.8 108.52,102.8 107.21,102.02C105.91,101.49 104.34,101.22 102.77,101.49L96.47,112.19C98.31,111.69 99.62,111.93 101.17,112.45M109.57,98.87C108.25,98.09 106.67,97.83 105.37,98.09L112.95,88.16C114.52,88.16 115.83,88.42 117.13,89.2C118.43,90 120.01,90.53 121.33,90.27L114,99.41C112.43,99.41 110.86,99.41 109.56,98.91M119.48,86.35C118.43,85.3 116.86,85.05 115.3,85.05L123.92,76.15C125.49,76.15 126.79,76.95 128.1,77.72C129.15,78.79 130.7,79.32 132.28,79.32L123.92,87.42C122.35,87.42 120.78,87.15 119.48,86.37M280.5,69.6C281.28,68.3 281.54,66.74 281.28,65.43L291.2,73C291.2,74.58 290.95,75.88 290.16,77.2C289.38,78.5 288.86,80.06 289.12,81.37L279.97,74.05C279.97,72.49 279.97,70.92 280.5,69.61M293.04,79.55C292.24,80.85 291.99,82.43 291.99,84L300.09,92.34C300.09,90.77 300.59,89.46 301.64,88.16C302.44,86.86 303.21,85.54 303.21,83.98L294.31,75.34C294.59,76.91 294.06,78.48 293.01,79.52M304,91.3C302.97,92.6 302.45,93.92 302.45,95.48L309.25,104.88C309.5,103.32 310.29,102.02 311.33,100.98C312.38,99.93 313.16,98.62 313.43,97.05L305.83,87.38C305.83,88.95 305.33,90.26 304.03,91.3M313.43,104.37C312.38,105.41 311.59,106.72 311.33,108.29L316.83,118.46C317.33,116.89 318.13,115.86 319.43,114.8C320.73,114.03 321.53,112.7 322.05,111.15L315.77,100.45C315.51,102.27 314.73,103.31 313.42,104.35M321.26,118.48C319.96,119.53 319.16,120.58 318.66,122.14L322.83,133.12C323.35,131.82 324.4,130.5 325.97,129.98C327.27,129.2 328.32,128.15 329.1,126.84L324.4,115.34C323.62,116.64 322.57,117.7 321.26,118.48M327,133.38C325.7,134.16 324.66,135.21 323.88,136.51L326.48,147.77C327.28,146.47 328.58,145.42 329.88,145.17C331.18,144.63 332.5,143.59 333.28,142.27L330.15,130.27C329.35,131.83 328.32,132.87 327.01,133.4M330.68,149.06C329.38,149.58 328.08,150.62 327.28,151.93L328.58,163.43C329.63,162.13 330.94,161.33 332.25,161.08C333.55,160.82 334.85,159.78 335.91,158.73L334.34,146.43C333.29,147.75 332.24,148.8 330.68,149.06M332.25,165C330.68,165.52 329.37,166.3 328.33,167.35L328.07,179.11C329.11,178.08 330.67,177.56 331.99,177.31C333.55,177.04 334.86,176.51 335.91,175.47L335.91,163.19C335.11,164.23 333.81,165.02 332.25,165.02M331.99,180.96C330.42,181.22 329.11,181.74 327.81,182.79L325.98,194.29C327.28,193.49 328.58,192.99 330.16,192.99C331.73,192.99 333.03,192.46 334.34,191.67L335.91,179.39C334.86,180.69 333.29,181.22 331.99,180.96M329.37,196.9C327.81,196.9 326.24,197.42 325.19,198.2L321.79,209.44C323.09,208.66 324.67,208.4 326.24,208.92C327.81,209.18 329.11,208.92 330.68,208.14L333.82,196.12C332.27,196.9 330.96,197.16 329.39,196.9M324.94,212.32C323.37,212.06 321.8,212.32 320.5,213.1L315.53,223.55C316.86,223.03 318.43,223.03 320,223.55C321.56,223.82 322.87,223.82 324.44,223.55L329.14,212.05C327.84,212.58 326.28,212.85 324.97,212.32M318.17,226.95C316.6,226.43 315.03,226.69 313.72,226.95L307.72,237.15C309.28,236.88 310.85,236.88 312.16,237.67C313.46,238.19 315.03,238.45 316.6,238.19L322.87,227.49C321.04,227.74 319.74,227.49 318.17,226.95M309.8,240.55C308.5,240.02 306.93,239.75 305.36,240.02L298.04,249.17C299.61,248.9 301.18,249.43 302.24,250.21C303.54,250.97 305.1,251.24 306.41,251.24L313.98,241.31C312.68,241.84 311.11,241.31 309.8,240.53M299.87,253.08C298.57,252.28 297,252.03 295.43,252.03L286.79,260.13C288.36,260.13 289.66,260.66 290.97,261.7C292.27,262.46 293.57,263.25 295.15,263.25L303.77,254.35C302.47,254.62 300.9,254.1 299.85,253.05M288.1,264.05C286.8,262.99 285.5,262.47 283.92,262.47L274.52,269.27C276.06,269.53 277.37,270.31 278.42,271.37C279.46,272.4 280.77,273.19 282.32,273.45L292.27,265.87C290.44,265.87 289.13,265.35 288.07,264.04M226.42,279.46C226.68,281.03 227.2,282.34 228.25,283.64C231.39,283.9 234.52,284.94 237.15,287.3C237.15,285.47 237.92,283.64 239.23,282.6C240.03,281.8 240.53,281.03 240.81,279.98C237.16,277.38 232.97,275.8 228.27,275.8L225.13,275.8C225.91,276.85 226.43,278.15 226.43,279.46M275.03,273.46C273.99,272.4 272.69,271.62 271.13,271.36L260.93,276.86C262.49,277.36 263.53,278.16 264.58,279.46C265.38,280.76 266.68,281.56 268.24,282.06L278.98,275.8C277.15,275.54 276.1,274.75 275.06,273.45M260.94,281.3C259.89,279.98 258.84,279.2 257.28,278.68L247.35,282.86C248.93,284.96 249.98,287.56 250.75,290.16L264.09,284.16C262.79,283.64 261.74,282.59 260.96,281.29" style="fill:white;fill-rule:nonzero;"/>
        <path d="M216.283,252.314L215.776,257.111L199.748,255.424L199.373,258.919L213.49,260.4L213.046,264.68L198.942,263.196L198.603,266.3L214.631,267.997L214.13,272.781L191.402,270.387L193.546,249.926L216.283,252.314ZM227.235,264.214C227.353,264.652 227.65,265.045 228.063,265.276C228.462,265.508 228.941,265.574 229.394,265.454L237.937,263.158C238.552,263 239.031,262.514 239.18,261.905C239.341,261.303 239.163,260.647 238.72,260.21C238.266,259.756 237.607,259.601 237.004,259.778L224.914,263.003C222.346,263.697 219.705,262.169 219.02,259.601L218.347,257.08C217.663,254.518 219.191,251.873 221.749,251.185L237.423,246.987C239.991,246.302 242.629,247.821 243.314,250.386L243.777,252.092L237.261,253.83C237.01,252.891 236.044,252.342 235.108,252.587L226.55,254.879C225.615,255.133 225.063,256.097 225.304,257.038C225.564,257.974 226.522,258.529 227.467,258.278L239.582,255.038C240.809,254.705 242.135,254.876 243.226,255.513C244.335,256.147 245.147,257.203 245.477,258.44L246.149,260.961C246.472,262.194 246.301,263.51 245.67,264.607C245.033,265.714 243.993,266.529 242.746,266.852L227.074,271.057C224.505,271.738 221.873,270.216 221.172,267.654L220.726,265.951L227.235,264.214ZM186.253,264.705L189.037,257.818L176.537,252.774L174.93,256.759L179.626,258.652L181.179,259.28L180.593,260.729C180.431,261.122 180.13,261.427 179.746,261.582C179.375,261.75 178.941,261.75 178.557,261.595L168.956,257.723C168.148,257.39 167.773,256.48 168.084,255.684L171.02,248.439C171.169,248.043 171.483,247.742 171.854,247.577C172.238,247.415 172.663,247.415 173.056,247.567L182.657,251.451C183.037,251.604 183.348,251.905 183.504,252.289C183.678,252.676 183.678,253.1 183.526,253.484L189.766,256.008L190.343,254.562C191.357,252.092 190.159,249.289 187.695,248.287L171.616,241.8C169.162,240.798 166.353,241.993 165.348,244.457L161.26,254.616C160.252,257.07 161.444,259.879 163.908,260.872L179.987,267.369C182.46,268.365 185.257,267.169 186.253,264.705ZM269.068,236.228L263.414,239.897C262.935,239.168 261.974,238.958 261.236,239.444L252.56,245.075C251.831,245.544 251.628,246.511 252.091,247.244L256.365,253.795C256.587,254.147 256.936,254.394 257.351,254.473C257.751,254.562 258.179,254.483 258.525,254.251L267.203,248.62C267.929,248.141 268.135,247.177 267.663,246.451L266.816,245.135L272.473,241.479L274.169,244.102C275.612,246.324 274.978,249.305 272.758,250.751L258.214,260.197C257.145,260.894 255.833,261.132 254.586,260.862C253.34,260.602 252.256,259.854 251.555,258.776L245.601,249.6C244.142,247.364 244.773,244.393 247.005,242.941L261.546,233.495C263.779,232.053 266.756,232.677 268.215,234.913L269.068,236.228ZM156.27,229.541L135,238.064L139.959,242.535L144.937,240.538L152.946,247.754L151.488,252.907L156.46,257.39L162.716,235.344L156.27,229.541ZM284.89,239.653L270.311,225.071L266.017,229.411L280.66,243.927L284.909,239.666L284.89,239.653ZM154.262,243.109L149.427,238.74L156.263,236.003L154.262,243.109Z" style="fill:white;fill-rule:nonzero;"/>
        <path d="M327,133.38C325.7,134.16 324.66,135.21 323.88,136.51L326.48,147.77C327.28,146.47 328.58,145.42 329.88,145.17C331.18,144.63 332.5,143.59 333.28,142.27L330.15,130.27C329.35,131.83 328.32,132.87 327.01,133.4M321.27,118.48C319.97,119.53 319.17,120.58 318.67,122.14L322.84,133.12C323.36,131.82 324.41,130.5 325.98,129.98C327.28,129.2 328.33,128.15 329.11,126.84L324.41,115.34C323.63,116.64 322.58,117.7 321.27,118.48" style="fill:white;fill-rule:nonzero;"/>
    </g>
</svg>
